<?xml version="1.0" encoding="UTF-8"?> <svg xmlns="http://www.w3.org/2000/svg" width="14" height="14" viewBox="0 0 14 14" fill="none"><g clip-path="url(#clip0_77_675)"><path d="M8.74999 3.43008L8.16666 5.83341H11.5675C11.7486 5.83341 11.9272 5.87558 12.0892 5.95658C12.2512 6.03758 12.3922 6.15519 12.5008 6.30008C12.6095 6.44498 12.6829 6.61318 12.7153 6.79138C12.7477 6.96958 12.7382 7.15287 12.6875 7.32675L11.3283 11.9934C11.2576 12.2357 11.1103 12.4486 10.9083 12.6001C10.7064 12.7515 10.4608 12.8334 10.2083 12.8334H2.33332C2.0239 12.8334 1.72716 12.7105 1.50837 12.4917C1.28957 12.2729 1.16666 11.9762 1.16666 11.6667V7.00008C1.16666 6.69066 1.28957 6.39392 1.50837 6.17512C1.72716 5.95633 2.0239 5.83341 2.33332 5.83341H3.94332C4.16037 5.8333 4.37309 5.77264 4.55755 5.65825C4.74201 5.54386 4.8909 5.38029 4.98749 5.18591L6.99999 1.16675C7.27508 1.17015 7.54584 1.23568 7.79204 1.35843C8.03825 1.48118 8.25353 1.65798 8.42181 1.87562C8.59009 2.09326 8.70701 2.34611 8.76384 2.61528C8.82066 2.88446 8.81593 3.16299 8.74999 3.43008Z" stroke="#2FCA10" stroke-linecap="round" stroke-linejoin="round"></path><path d="M4.08334 5.83325V12.8333" stroke="#2FCA10" stroke-linecap="round" stroke-linejoin="round"></path></g><defs><clipPath id="clip0_77_675"><rect width="14" height="14" fill="white"></rect></clipPath></defs></svg> 