<svg width="20" height="20" viewBox="0 0 20 20" fill="none" xmlns="http://www.w3.org/2000/svg">
<g id="mingcute:telegram-fill">
<path id="Vector" fill-rule="evenodd" clip-rule="evenodd" d="M16.4808 4.10833C16.6868 4.02166 16.9122 3.99177 17.1336 4.02176C17.355 4.05176 17.5643 4.14056 17.7397 4.2789C17.9152 4.41725 18.0503 4.60009 18.1311 4.8084C18.2119 5.01671 18.2354 5.24287 18.1992 5.46333L16.3092 16.9275C16.1258 18.0333 14.9125 18.6675 13.8983 18.1167C13.05 17.6558 11.79 16.9458 10.6567 16.205C10.09 15.8342 8.35417 14.6467 8.5675 13.8017C8.75083 13.0792 11.6675 10.3642 13.3342 8.75C13.9883 8.11583 13.69 7.75 12.9175 8.33333C10.9992 9.78167 7.91917 11.9842 6.90083 12.6042C6.0025 13.1508 5.53417 13.2442 4.97417 13.1508C3.9525 12.9808 3.005 12.7175 2.23167 12.3967C1.18667 11.9633 1.2375 10.5267 2.23083 10.1083L16.4808 4.10833Z" fill="#0EA5E9"/>
</g>
</svg>
