<svg preserveAspectRatio="none" overflow="visible" style="display: block;" width="20" height="20" viewBox="0 0 20 20" fill="none" xmlns="http://www.w3.org/2000/svg">
<g id="circle-pile 1">
<path id="Vector" d="M10 17.5C10.9205 17.5 11.6667 16.7538 11.6667 15.8333C11.6667 14.9129 10.9205 14.1667 10 14.1667C9.07953 14.1667 8.33333 14.9129 8.33333 15.8333C8.33333 16.7538 9.07953 17.5 10 17.5Z" stroke="#7C5CDB" stroke-width="1.25" stroke-linecap="round" stroke-linejoin="round"/>
<path id="Vector_2" d="M10 5.83333C10.9205 5.83333 11.6667 5.08714 11.6667 4.16667C11.6667 3.24619 10.9205 2.5 10 2.5C9.07953 2.5 8.33333 3.24619 8.33333 4.16667C8.33333 5.08714 9.07953 5.83333 10 5.83333Z" stroke="#7C5CDB" stroke-width="1.25" stroke-linecap="round" stroke-linejoin="round"/>
<path id="Vector_3" d="M13.3333 11.6667C14.2538 11.6667 15 10.9205 15 10C15 9.07953 14.2538 8.33333 13.3333 8.33333C12.4129 8.33333 11.6667 9.07953 11.6667 10C11.6667 10.9205 12.4129 11.6667 13.3333 11.6667Z" stroke="#7C5CDB" stroke-width="1.25" stroke-linecap="round" stroke-linejoin="round"/>
<path id="Vector_4" d="M16.6667 17.5C17.5871 17.5 18.3333 16.7538 18.3333 15.8333C18.3333 14.9129 17.5871 14.1667 16.6667 14.1667C15.7462 14.1667 15 14.9129 15 15.8333C15 16.7538 15.7462 17.5 16.6667 17.5Z" stroke="#7C5CDB" stroke-width="1.25" stroke-linecap="round" stroke-linejoin="round"/>
<path id="Vector_5" d="M3.33333 17.5C4.25381 17.5 5 16.7538 5 15.8333C5 14.9129 4.25381 14.1667 3.33333 14.1667C2.41286 14.1667 1.66667 14.9129 1.66667 15.8333C1.66667 16.7538 2.41286 17.5 3.33333 17.5Z" stroke="#7C5CDB" stroke-width="1.25" stroke-linecap="round" stroke-linejoin="round"/>
<path id="Vector_6" d="M6.66667 11.6667C7.58714 11.6667 8.33333 10.9205 8.33333 10C8.33333 9.07953 7.58714 8.33333 6.66667 8.33333C5.74619 8.33333 5 9.07953 5 10C5 10.9205 5.74619 11.6667 6.66667 11.6667Z" stroke="#7C5CDB" stroke-width="1.25" stroke-linecap="round" stroke-linejoin="round"/>
</g>
</svg>
